<?xml version="1.0" encoding="UTF-8" standalone="no"?>
<!DOCTYPE svg PUBLIC "-//W3C//DTD SVG 1.1//EN"
 "http://www.w3.org/Graphics/SVG/1.1/DTD/svg11.dtd">
<!-- Generated by graphviz version 2.44.0 (20200408.0750)
 -->
<!-- Title: dependency&#45;cruiser output Pages: 1 -->
<svg width="332pt" height="122pt"
 viewBox="0.00 0.00 332.50 122.00" xmlns="http://www.w3.org/2000/svg" xmlns:xlink="http://www.w3.org/1999/xlink">
<g id="graph0" class="graph" transform="scale(1 1) rotate(0) translate(4 118)">
<title>dependency&#45;cruiser output</title>
<polygon fill="white" stroke="transparent" points="-4,4 -4,-118 328.5,-118 328.5,4 -4,4"/>
<g id="clust1" class="cluster">
<title>cluster_src</title>
<path fill="#ffffff" stroke="black" stroke-width="2" d="M20,-8C20,-8 304.5,-8 304.5,-8 310.5,-8 316.5,-14 316.5,-20 316.5,-20 316.5,-94 316.5,-94 316.5,-100 310.5,-106 304.5,-106 304.5,-106 20,-106 20,-106 14,-106 8,-100 8,-94 8,-94 8,-20 8,-20 8,-14 14,-8 20,-8"/>
<text text-anchor="middle" x="162.25" y="-93.9" font-family="Helvetica,sans-Serif" font-weight="bold" font-size="9.00">src</text>
</g>
<g id="clust2" class="cluster">
<title>cluster_src/handlers</title>
<path fill="#ffffff" stroke="black" stroke-width="2" d="M188.5,-26C188.5,-26 234.5,-26 234.5,-26 240.5,-26 246.5,-32 246.5,-38 246.5,-38 246.5,-67 246.5,-67 246.5,-73 240.5,-79 234.5,-79 234.5,-79 188.5,-79 188.5,-79 182.5,-79 176.5,-73 176.5,-67 176.5,-67 176.5,-38 176.5,-38 176.5,-32 182.5,-26 188.5,-26"/>
<text text-anchor="middle" x="211.5" y="-66.9" font-family="Helvetica,sans-Serif" font-weight="bold" font-size="9.00">handlers</text>
</g>
<g id="clust3" class="cluster">
<title>cluster_src/init</title>
<path fill="#ffffff" stroke="black" stroke-width="2" d="M28,-21C28,-21 74,-21 74,-21 80,-21 86,-27 86,-33 86,-33 86,-62 86,-62 86,-68 80,-74 74,-74 74,-74 28,-74 28,-74 22,-74 16,-68 16,-62 16,-62 16,-33 16,-33 16,-27 22,-21 28,-21"/>
<text text-anchor="middle" x="51" y="-61.9" font-family="Helvetica,sans-Serif" font-weight="bold" font-size="9.00">init</text>
</g>
<g id="clust4" class="cluster">
<title>cluster_src/listeners</title>
<path fill="#ffffff" stroke="black" stroke-width="2" d="M106,-21C106,-21 156.5,-21 156.5,-21 162.5,-21 168.5,-27 168.5,-33 168.5,-33 168.5,-62 168.5,-62 168.5,-68 162.5,-74 156.5,-74 156.5,-74 106,-74 106,-74 100,-74 94,-68 94,-62 94,-62 94,-33 94,-33 94,-27 100,-21 106,-21"/>
<text text-anchor="middle" x="131.25" y="-61.9" font-family="Helvetica,sans-Serif" font-weight="bold" font-size="9.00">listeners</text>
</g>
<!-- src/data.js -->
<g id="node1" class="node">
<title>src/data.js</title>
<g id="a_node1"><a xlink:href="src/data.js" xlink:title="data.js">
<path fill="#ffffcc" stroke="black" d="M302.3,-43.3C302.3,-43.3 260.7,-43.3 260.7,-43.3 257.6,-43.3 254.5,-40.2 254.5,-37.1 254.5,-37.1 254.5,-30.9 254.5,-30.9 254.5,-27.8 257.6,-24.7 260.7,-24.7 260.7,-24.7 302.3,-24.7 302.3,-24.7 305.4,-24.7 308.5,-27.8 308.5,-30.9 308.5,-30.9 308.5,-37.1 308.5,-37.1 308.5,-40.2 305.4,-43.3 302.3,-43.3"/>
<text text-anchor="middle" x="281.5" y="-31.3" font-family="Helvetica,sans-Serif" font-size="9.00">data.js</text>
</a>
</g>
</g>
<!-- src/handlers/draw.js -->
<g id="node2" class="node">
<title>src/handlers/draw.js</title>
<g id="a_node2"><a xlink:href="src/handlers/draw.js" xlink:title="draw.js">
<path fill="#ffffcc" stroke="black" d="M232.3,-52.3C232.3,-52.3 190.7,-52.3 190.7,-52.3 187.6,-52.3 184.5,-49.2 184.5,-46.1 184.5,-46.1 184.5,-39.9 184.5,-39.9 184.5,-36.8 187.6,-33.7 190.7,-33.7 190.7,-33.7 232.3,-33.7 232.3,-33.7 235.4,-33.7 238.5,-36.8 238.5,-39.9 238.5,-39.9 238.5,-46.1 238.5,-46.1 238.5,-49.2 235.4,-52.3 232.3,-52.3"/>
<text text-anchor="middle" x="211.5" y="-40.3" font-family="Helvetica,sans-Serif" font-size="9.00">draw.js</text>
</a>
</g>
</g>
<!-- src/handlers/draw.js&#45;&gt;src/data.js -->
<g id="edge1" class="edge">
<title>src/handlers/draw.js&#45;&gt;src/data.js</title>
<path fill="none" stroke="#000000" stroke-width="2" stroke-opacity="0.200000" d="M238.59,-39.55C241.62,-39.15 244.73,-38.73 247.83,-38.32"/>
<polygon fill="#000000" fill-opacity="0.200000" stroke="#000000" stroke-width="2" stroke-opacity="0.200000" points="248.46,-40.36 254.14,-37.49 247.91,-36.19 248.46,-40.36"/>
</g>
<!-- src/init/index.js -->
<g id="node3" class="node">
<title>src/init/index.js</title>
<g id="a_node3"><a xlink:href="src/init/index.js" xlink:title="index.js">
<path fill="#ffffcc" stroke="black" d="M71.8,-47.3C71.8,-47.3 30.2,-47.3 30.2,-47.3 27.1,-47.3 24,-44.2 24,-41.1 24,-41.1 24,-34.9 24,-34.9 24,-31.8 27.1,-28.7 30.2,-28.7 30.2,-28.7 71.8,-28.7 71.8,-28.7 74.9,-28.7 78,-31.8 78,-34.9 78,-34.9 78,-41.1 78,-41.1 78,-44.2 74.9,-47.3 71.8,-47.3"/>
<text text-anchor="middle" x="51" y="-35.3" font-family="Helvetica,sans-Serif" font-size="9.00">index.js</text>
</a>
</g>
</g>
<!-- src/listeners/listeners.js -->
<g id="node4" class="node">
<title>src/listeners/listeners.js</title>
<g id="a_node4"><a xlink:href="src/listeners/listeners.js" xlink:title="listeners.js">
<path fill="#ffffcc" stroke="black" d="M154.55,-47.3C154.55,-47.3 107.95,-47.3 107.95,-47.3 104.85,-47.3 101.75,-44.2 101.75,-41.1 101.75,-41.1 101.75,-34.9 101.75,-34.9 101.75,-31.8 104.85,-28.7 107.95,-28.7 107.95,-28.7 154.55,-28.7 154.55,-28.7 157.65,-28.7 160.75,-31.8 160.75,-34.9 160.75,-34.9 160.75,-41.1 160.75,-41.1 160.75,-44.2 157.65,-47.3 154.55,-47.3"/>
<text text-anchor="middle" x="131.25" y="-35.3" font-family="Helvetica,sans-Serif" font-size="9.00">listeners.js</text>
</a>
</g>
</g>
<!-- src/init/index.js&#45;&gt;src/listeners/listeners.js -->
<g id="edge2" class="edge">
<title>src/init/index.js&#45;&gt;src/listeners/listeners.js</title>
<path fill="none" stroke="#000000" stroke-width="2" stroke-opacity="0.200000" d="M78.06,-38C83.67,-38 89.69,-38 95.58,-38"/>
<polygon fill="#000000" fill-opacity="0.200000" stroke="#000000" stroke-width="2" stroke-opacity="0.200000" points="95.89,-40.1 101.89,-38 95.89,-35.9 95.89,-40.1"/>
</g>
<!-- src/listeners/listeners.js&#45;&gt;src/data.js -->
<g id="edge3" class="edge">
<title>src/listeners/listeners.js&#45;&gt;src/data.js</title>
<path fill="none" stroke="#000000" stroke-width="2" stroke-opacity="0.200000" d="M155.31,-28.6C162.03,-26.3 169.46,-24.16 176.5,-23 207.2,-17.94 215.77,-18.15 246.5,-23 247.14,-23.1 247.79,-23.21 248.44,-23.33"/>
<polygon fill="#000000" fill-opacity="0.200000" stroke="#000000" stroke-width="2" stroke-opacity="0.200000" points="248.03,-25.39 254.34,-24.64 248.94,-21.29 248.03,-25.39"/>
</g>
<!-- src/listeners/listeners.js&#45;&gt;src/handlers/draw.js -->
<g id="edge4" class="edge">
<title>src/listeners/listeners.js&#45;&gt;src/handlers/draw.js</title>
<path fill="none" stroke="#000000" stroke-width="2" stroke-opacity="0.200000" d="M160.5,-39.81C166.22,-40.17 172.28,-40.56 178.13,-40.93"/>
<polygon fill="#000000" fill-opacity="0.200000" stroke="#000000" stroke-width="2" stroke-opacity="0.200000" points="178.25,-43.04 184.37,-41.33 178.52,-38.85 178.25,-43.04"/>
</g>
</g>
</svg>
